<?xml version="1.0" standalone="no"?>
<!DOCTYPE svg PUBLIC "-//W3C//DTD SVG 20010904//EN"
 "http://www.w3.org/TR/2001/REC-SVG-20010904/DTD/svg10.dtd">
<svg version="1.0" xmlns="http://www.w3.org/2000/svg"
 width="180.000000pt" height="180.000000pt" viewBox="0 0 180.000000 180.000000"
 preserveAspectRatio="xMidYMid meet">
<metadata>
Created by potrace 1.14, written by Peter Selinger 2001-2017
</metadata>
<g transform="translate(0.000000,180.000000) scale(0.100000,-0.100000)"
fill="#000000" stroke="none">
<path d="M900 1386 c-55 -22 -55 -22 -60 -72 l-5 -49 -202 -6 c-165 -5 -207
-9 -228 -23 -30 -19 -33 -54 -7 -85 20 -26 41 -28 277 -30 l161 -1 -1 -536 0
-536 24 -19 c34 -27 75 -24 100 7 21 26 21 36 21 555 l0 528 199 3 c179 3 201
5 220 22 28 25 28 77 0 102 -19 17 -41 19 -225 22 l-204 3 0 70 c0 38 -3 69
-7 69 -5 -1 -33 -11 -63 -24z"/>
</g>
</svg>
