<svg width="7" height="13" viewBox="0 0 7 13" fill="none" xmlns="http://www.w3.org/2000/svg">
<path fill-rule="evenodd" clip-rule="evenodd" d="M0.292893 12.2071C-0.0976311 11.8166 -0.0976311 11.1834 0.292893 10.7929L4.58579 6.5L0.292893 2.20711C-0.0976311 1.81658 -0.0976311 1.18342 0.292893 0.792894C0.683417 0.402369 1.31658 0.402369 1.70711 0.792894L6.70711 5.79289C7.09763 6.18342 7.09763 6.81658 6.70711 7.20711L1.70711 12.2071C1.31658 12.5976 0.683417 12.5976 0.292893 12.2071Z" fill="#3E3E3E"/>
</svg>

<svg width="7" height="13" fill="none" xmlns="http://www.w3.org/2000/svg"><path fill-rule="evenodd" clip-rule="evenodd" d="M.292893 12.2071c-.3905241-.3905-.3905241-1.0237 0-1.4142L4.58579 6.5.292893 2.20711c-.3905241-.39053-.3905241-1.02369 0-1.414216.390524-.390525 1.023687-.390525 1.414217 0l5 4.999996c.39052.39053.39052 1.02369 0 1.41422l-5 4.99999c-.39053.3905-1.023693.3905-1.414217 0Z" fill="#3E3E3E"/></svg>