<svg width="118" height="207" viewBox="0 0 118 207" fill="none" xmlns="http://www.w3.org/2000/svg">
<path fill-rule="evenodd" clip-rule="evenodd" d="M59.7517 -1.5299e-07C61.6847 -6.84959e-08 63.2517 1.567 63.2517 3.5L63.2517 203.5C63.2517 205.433 61.6847 207 59.7517 207C57.8187 207 56.2517 205.433 56.2517 203.5L56.2517 3.5C56.2517 1.567 57.8187 -2.37484e-07 59.7517 -1.5299e-07Z" fill="url(#paint0_linear_357_383)"/>
<path fill-rule="evenodd" clip-rule="evenodd" d="M0.612793 67.4095C0.612793 65.4765 2.1798 63.9095 4.11279 63.9095H113.887C115.82 63.9095 117.387 65.4765 117.387 67.4095C117.387 69.3425 115.82 70.9095 113.887 70.9095H4.11279C2.1798 70.9095 0.612793 69.3425 0.612793 67.4095Z" fill="url(#paint1_linear_357_383)"/>
<defs>
<linearGradient id="paint0_linear_357_383" x1="64.4322" y1="103.5" x2="36.3907" y2="40.4076" gradientUnits="userSpaceOnUse">
<stop stop-color="#1947BE"/>
<stop offset="1" stop-color="#1947BE" stop-opacity="0.2"/>
</linearGradient>
<linearGradient id="paint1_linear_357_383" x1="56.1128" y1="71.4547" x2="54.5759" y2="54.549" gradientUnits="userSpaceOnUse">
<stop stop-color="#1947BE"/>
<stop offset="1" stop-color="#1947BE" stop-opacity="0.2"/>
</linearGradient>
</defs>
</svg>
