<svg width="86" height="85" viewBox="0 0 86 85" fill="none" xmlns="http://www.w3.org/2000/svg">
<path d="M65.8903 14.7095C64.8816 14.7095 63.8956 15.0086 63.0569 15.569C62.2182 16.1294 61.5645 16.9259 61.1785 17.8578C60.7925 18.7897 60.6915 19.8152 60.8883 20.8045C61.0851 21.7938 61.5708 22.7025 62.2841 23.4158C62.9973 24.129 63.9061 24.6147 64.8954 24.8115C65.8847 25.0083 66.9101 24.9073 67.842 24.5213C68.7739 24.1353 69.5704 23.4816 70.1308 22.6429C70.6912 21.8042 70.9903 20.8182 70.9903 19.8095C70.9903 18.4569 70.453 17.1597 69.4966 16.2033C68.5401 15.2468 67.2429 14.7095 65.8903 14.7095ZM85.4403 24.9945C85.3577 21.4683 84.6972 17.9795 83.4853 14.667C82.4047 11.8328 80.7227 9.26645 78.5553 7.14452C76.4508 4.96608 73.8784 3.29477 71.0328 2.25702C67.7291 1.0082 64.2364 0.332659 60.7053 0.259516C56.2003 0.00451636 54.7553 0.0045166 43.1953 0.0045166C31.6353 0.0045166 30.1903 0.00451636 25.6853 0.259516C22.1542 0.332659 18.6615 1.0082 15.3578 2.25702C12.5174 3.30527 9.94728 4.97515 7.83531 7.14452C5.65687 9.24902 3.98556 11.8214 2.94781 14.667C1.699 17.9707 1.02345 21.4634 0.950312 24.9945C0.695312 29.4995 0.695312 30.9445 0.695312 42.5045C0.695312 54.0645 0.695312 55.5095 0.950312 60.0145C1.02345 63.5456 1.699 67.0383 2.94781 70.342C3.98556 73.1876 5.65687 75.76 7.83531 77.8645C9.94728 80.0339 12.5174 81.7038 15.3578 82.752C18.6615 84.0008 22.1542 84.6764 25.6853 84.7495C30.1903 85.0045 31.6353 85.0045 43.1953 85.0045C54.7553 85.0045 56.2003 85.0045 60.7053 84.7495C64.2364 84.6764 67.7291 84.0008 71.0328 82.752C73.8784 81.7143 76.4508 80.043 78.5553 77.8645C80.7323 75.7505 82.4157 73.1818 83.4853 70.342C84.6972 67.0295 85.3577 63.5408 85.4403 60.0145C85.4403 55.5095 85.6953 54.0645 85.6953 42.5045C85.6953 30.9445 85.6953 29.4995 85.4403 24.9945ZM77.7903 59.5045C77.7594 62.2023 77.2708 64.8753 76.3453 67.4095C75.6667 69.2591 74.5768 70.9303 73.1578 72.297C71.7793 73.7017 70.1115 74.7894 68.2703 75.4845C65.736 76.41 63.0631 76.8986 60.3653 76.9295C56.1153 77.142 54.5428 77.1845 43.3653 77.1845C32.1878 77.1845 30.6153 77.1845 26.3653 76.9295C23.5641 76.982 20.7748 76.5506 18.1203 75.6545C16.3599 74.9238 14.7686 73.8389 13.4453 72.467C12.0347 71.1017 10.9584 69.4291 10.3003 67.5795C9.2627 65.0089 8.6872 62.2753 8.60031 59.5045C8.60031 55.2545 8.34531 53.682 8.34531 42.5045C8.34531 31.327 8.34531 29.7545 8.60031 25.5045C8.61936 22.7465 9.12285 20.0133 10.0878 17.4295C10.836 15.6356 11.9844 14.0366 13.4453 12.7545C14.7365 11.2932 16.3323 10.1327 18.1203 9.35452C20.7109 8.4197 23.4413 7.9311 26.1953 7.90952C30.4453 7.90952 32.0178 7.65452 43.1953 7.65452C54.3728 7.65452 55.9453 7.65452 60.1953 7.90952C62.8931 7.94046 65.566 8.42906 68.1003 9.35452C70.0316 10.0713 71.7651 11.2366 73.1578 12.7545C74.5505 14.06 75.6388 15.6561 76.3453 17.4295C77.2899 20.0175 77.7788 22.7496 77.7903 25.5045C78.0028 29.7545 78.0453 31.327 78.0453 42.5045C78.0453 53.682 78.0028 55.2545 77.7903 59.5045ZM43.1953 20.702C38.885 20.7104 34.6739 21.9963 31.0941 24.397C27.5143 26.7978 24.7264 30.2059 23.0828 34.1905C21.4391 38.1751 21.0134 42.5575 21.8594 46.784C22.7055 51.0104 24.7853 54.8913 27.8361 57.9362C30.887 60.9811 34.7719 63.0533 39 63.8911C43.2281 64.729 47.6096 64.2947 51.5911 62.6433C55.5725 60.9919 58.975 58.1974 61.3689 54.6129C63.7627 51.0284 65.0403 46.8148 65.0403 42.5045C65.0459 39.6362 64.4844 36.7951 63.3881 34.1446C62.2917 31.4941 60.6822 29.0865 58.652 27.0602C56.6218 25.034 54.2111 23.4291 51.5585 22.338C48.9058 21.2468 46.0636 20.6908 43.1953 20.702ZM43.1953 56.657C40.3962 56.657 37.66 55.827 35.3326 54.2719C33.0052 52.7168 31.1913 50.5065 30.1201 47.9204C29.0489 45.3344 28.7687 42.4888 29.3147 39.7435C29.8608 36.9982 31.2087 34.4764 33.188 32.4972C35.1672 30.5179 37.689 29.17 40.4343 28.624C43.1796 28.0779 46.0252 28.3581 48.6112 29.4293C51.1973 30.5005 53.4076 32.3144 54.9627 34.6418C56.5178 36.9692 57.3478 39.7054 57.3478 42.5045C57.3478 44.363 56.9817 46.2034 56.2705 47.9204C55.5593 49.6375 54.5168 51.1977 53.2026 52.5118C51.8885 53.826 50.3283 54.8685 48.6112 55.5797C46.8942 56.291 45.0538 56.657 43.1953 56.657Z" fill="url(#paint0_linear_511_77)"/>
<defs>
<linearGradient id="paint0_linear_511_77" x1="1" y1="0.0045166" x2="43.1953" y2="85.0045" gradientUnits="userSpaceOnUse">
<stop stop-color="#1947BE" stop-opacity="0.2"/>
<stop offset="1" stop-color="#1947BE"/>
</linearGradient>
</defs>
</svg>
