<svg width="105" height="85" viewBox="0 0 105 85" fill="none" xmlns="http://www.w3.org/2000/svg">
<path fill-rule="evenodd" clip-rule="evenodd" d="M7.36539 11.5874C8.10084 8.95429 10.5337 7 13.3886 7H91.3931C94.2479 7 96.6808 8.95429 97.4162 11.5874L52.3908 43.1052L7.36539 11.5874ZM0.13812 13.1929C0.137598 13.2264 0.137558 13.2599 0.137996 13.2934V71.7539C0.137996 79.0498 6.09275 85.0045 13.3886 85.0045H91.3931C98.6889 85.0045 104.644 79.0498 104.644 71.7539V13.2936C104.644 13.26 104.644 13.2264 104.643 13.1927C104.612 5.92331 98.6696 0 91.3931 0H13.3886C6.11197 0 0.169384 5.92342 0.13812 13.1929ZM97.6436 19.9728V71.7539C97.6436 75.1838 94.8229 78.0045 91.3931 78.0045H13.3886C9.95875 78.0045 7.138 75.1838 7.138 71.7539V19.9728L50.3837 50.2448C51.5888 51.0884 53.1928 51.0884 54.3979 50.2448L97.6436 19.9728Z" fill="url(#paint0_linear_511_78)"/>
<defs>
<linearGradient id="paint0_linear_511_78" x1="0.121488" y1="-2.07874e-06" x2="70.7767" y2="19.9771" gradientUnits="userSpaceOnUse">
<stop stop-color="#1947BE" stop-opacity="0.2"/>
<stop offset="1" stop-color="#1947BE"/>
</linearGradient>
</defs>
</svg>
