<svg width="18" height="14" viewBox="0 0 18 14" fill="none" xmlns="http://www.w3.org/2000/svg">
<g clip-path="url(#clip0_185_19)">
<path fill-rule="evenodd" clip-rule="evenodd" d="M0 13C0 12.4477 0.402944 12 0.9 12H17.1C17.5971 12 18 12.4477 18 13C18 13.5523 17.5971 14 17.1 14H0.9C0.402944 14 0 13.5523 0 13Z" fill="black"/>
<path d="M0 7C0 6.44772 0.402944 6 0.9 6H17.1C17.5971 6 18 6.44772 18 7C18 7.55228 17.5971 8 17.1 8H0.9C0.402944 8 0 7.55228 0 7Z" fill="black"/>
<path d="M0 1C0 0.447715 0.402944 0 0.9 0H17.1C17.5971 0 18 0.447715 18 1C18 1.55228 17.5971 2 17.1 2H0.9C0.402944 2 0 1.55228 0 1Z" fill="black"/>
</g>
<defs>
<clipPath id="clip0_185_19">
<rect width="18" height="14" fill="white"/>
</clipPath>
</defs>
</svg>

<svg width="18" height="14" fill="none" xmlns="http://www.w3.org/2000/svg">
  <g clip-path="url(#a)" fill="#000">
    <path fill-rule="evenodd" clip-rule="evenodd" d="M0 13c0-.552.403-1 .9-1h16.2c.497 0 .9.448.9 1s-.403 1-.9 1H.9c-.497 0-.9-.448-.9-1Z"/>
    <path d="M0 7c0-.552.403-1 .9-1h16.2c.497 0 .9.448.9 1s-.403 1-.9 1H.9C.403 8 0 7.552 0 7ZM0 1c0-.552.403-1 .9-1h16.2c.497 0 .9.448.9 1s-.403 1-.9 1H.9C.403 2 0 1.552 0 1Z"/>
  </g>
  <defs>
    <clipPath id="a">
      <path fill="#fff" d="M0 0h18v14H0z"/>
    </clipPath>
  </defs>
</svg>