<svg width="256" height="232" viewBox="0 0 256 232" fill="none" xmlns="http://www.w3.org/2000/svg">
<g clip-path="url(#clip0_676_84)">
<path d="M128.373 12.401L130.404 15.2331L132.436 12.4015C136.737 6.40735 143.734 2.5 151.657 2.5C164.719 2.5 175.31 13.0906 175.31 26.1555C175.31 27.9887 175.077 29.7783 174.666 31.5216L174.645 31.6095L174.631 31.6986C172.928 42.294 166.107 53.4471 157.309 62.8489C148.812 71.9289 138.761 79.0658 130.405 82.3284C122.047 79.0658 111.997 71.929 103.5 62.8489C94.7022 53.4471 87.8799 42.2937 86.1732 31.6978L86.1595 31.6123L86.1398 31.528C85.7326 29.7804 85.5 27.9888 85.5 26.1555C85.5 13.0908 96.0908 2.5 109.155 2.5C117.076 2.5 124.075 6.40753 128.373 12.401Z" stroke="url(#paint0_linear_676_84)" stroke-width="5"/>
<path d="M32.8094 228.688C32.4853 228.687 32.1685 228.592 31.8976 228.414C31.6266 228.236 31.413 227.984 31.2828 227.687C31.1527 227.39 31.1115 227.062 31.1642 226.742C31.217 226.422 31.3615 226.125 31.5801 225.886C32.6825 224.693 35.7356 221.286 36.6241 219.883C36.7395 219.693 36.8916 219.528 37.0714 219.398C37.2513 219.268 37.4553 219.175 37.6715 219.125C37.8877 219.074 38.1118 219.067 38.3307 219.105C38.5496 219.142 38.7589 219.222 38.9463 219.341C39.1337 219.46 39.2955 219.615 39.4223 219.798C39.549 219.98 39.6381 220.186 39.6844 220.403C39.7307 220.62 39.7332 220.844 39.6918 221.062C39.6504 221.281 39.566 221.488 39.4434 221.673C38.2308 223.584 34.4595 227.689 34.0353 228.15C33.8798 228.32 33.6903 228.456 33.4792 228.549C33.2681 228.641 33.0399 228.689 32.8094 228.688ZM22.8785 224.767C22.5258 224.765 22.1825 224.652 21.8977 224.444C21.6129 224.236 21.4011 223.944 21.2925 223.608C21.184 223.272 21.1843 222.911 21.2933 222.576C21.4024 222.24 21.6146 221.948 21.8997 221.74C22.2438 221.493 22.7248 221.176 23.3027 220.792C25.0531 219.632 27.6986 217.879 29.6795 215.961C29.8365 215.807 30.0227 215.685 30.2271 215.602C30.4316 215.52 30.6503 215.479 30.8707 215.481C31.0911 215.484 31.3088 215.53 31.5113 215.617C31.7138 215.704 31.897 215.831 32.0504 215.989C32.2038 216.147 32.3244 216.334 32.4052 216.539C32.486 216.745 32.5254 216.964 32.5211 217.184C32.5168 217.404 32.4689 217.622 32.3802 217.823C32.2916 218.025 32.1638 218.208 32.0044 218.36C29.7997 220.494 27.0005 222.351 25.1466 223.581C24.6121 223.931 24.1679 224.229 23.8539 224.456C23.569 224.658 23.228 224.767 22.8785 224.767ZM13.2181 218.988C12.8236 218.988 12.4418 218.848 12.1404 218.594C11.839 218.339 11.6374 217.986 11.5714 217.597C11.5054 217.208 11.5792 216.808 11.7797 216.469C11.9802 216.129 12.2945 215.871 12.667 215.741L13.6925 215.393C16.0508 214.595 20.44 213.109 22.9987 211.542C23.3766 211.31 23.831 211.238 24.262 211.342C24.693 211.445 25.0652 211.715 25.2969 212.093C25.5286 212.471 25.6007 212.925 25.4973 213.356C25.3939 213.787 25.1236 214.16 24.7457 214.391C21.8697 216.155 17.25 217.718 14.7681 218.56L13.776 218.901C13.5953 218.957 13.4073 218.986 13.2181 218.988ZM57.5682 167.756C57.1324 167.757 56.7137 167.587 56.4024 167.282C54.5084 165.435 52.0432 163.681 49.4344 161.824C43.5186 157.615 36.2466 152.437 31.8474 143.292C31.0767 144.114 30.457 145.066 30.0168 146.104C29.6628 146.936 29.1717 148.506 29.7964 149.702C29.9112 149.897 29.9852 150.113 30.014 150.337C30.0428 150.561 30.0257 150.789 29.9639 151.006C29.902 151.224 29.7967 151.427 29.6542 151.602C29.5117 151.778 29.335 151.922 29.1349 152.028C28.9348 152.133 28.7154 152.196 28.49 152.214C28.2646 152.232 28.0379 152.204 27.8237 152.132C27.6094 152.06 27.4121 151.945 27.2436 151.794C27.0751 151.643 26.939 151.46 26.8435 151.255C25.8514 149.374 25.9416 146.959 27.0907 144.457C28.1396 142.169 30.2273 139.62 32.1847 139.17C32.9864 138.979 33.7881 139.403 34.1021 140.158C38.0003 149.591 45.1019 154.642 51.3685 159.102C54.0875 161.036 56.6563 162.863 58.734 164.89C58.9718 165.122 59.1351 165.42 59.203 165.745C59.2708 166.07 59.2403 166.408 59.1151 166.716C58.99 167.023 58.776 167.287 58.5004 167.472C58.2249 167.657 57.9003 167.756 57.5682 167.756ZM59.5891 175.954C59.3302 175.953 59.0748 175.893 58.8432 175.777C58.6115 175.661 58.4099 175.494 58.2541 175.287C58.0984 175.08 57.9928 174.84 57.9456 174.585C57.8985 174.33 57.9111 174.068 57.9824 173.819L61.894 160.257C62.3773 158.629 63.372 157.199 64.731 156.179C66.0899 155.159 67.7409 154.604 69.4399 154.595C71.5236 154.598 73.5213 155.427 74.9947 156.9C76.4682 158.374 77.2971 160.372 77.2998 162.455C77.2998 162.898 77.1238 163.323 76.8106 163.636C76.4974 163.949 76.0725 164.125 75.6296 164.125C75.1866 164.125 74.7618 163.949 74.4486 163.636C74.1354 163.323 73.9594 162.898 73.9594 162.455C73.9594 159.923 71.9752 157.936 69.4399 157.936C67.449 157.936 65.6653 159.275 65.1007 161.193L61.1925 174.748C61.0919 175.095 60.8812 175.401 60.592 175.618C60.3029 175.836 59.9509 175.953 59.5891 175.954Z" fill="url(#paint1_linear_676_84)"/>
<path d="M38.262 232C36.9425 232 35.6498 231.803 34.5708 231.415C33.4117 230.998 32.5199 230.377 31.9353 229.605C29.2931 230.641 25.7155 229.982 23.3238 228.326C22.118 227.491 21.3397 226.472 21.0257 225.396C17.9959 225.804 15.0798 224.521 13.3295 222.817C12.1069 221.628 11.4087 220.222 11.3085 218.849C8.74313 218.181 6.68213 215.729 5.84369 213.231C4.74805 209.96 5.71342 206.934 8.3022 205.518C8.43767 205.444 8.58266 205.388 8.73311 205.354C17.9158 203.27 40.2528 199.732 44.7924 199.021L46.3824 196.342C46.6123 195.969 46.9794 195.701 47.4046 195.597C47.8298 195.492 48.2792 195.558 48.6559 195.782C49.0326 196.005 49.3065 196.367 49.4186 196.791C49.5306 197.214 49.4719 197.665 49.2551 198.045L47.2642 201.402C47.138 201.614 46.9665 201.795 46.7621 201.933C46.5578 202.071 46.3254 202.163 46.0818 202.201C45.8179 202.241 19.8298 206.296 9.7252 208.554C8.3022 209.493 8.74313 211.38 9.00702 212.172C9.63501 214.039 11.3286 215.909 12.972 215.666C13.2703 215.619 13.5756 215.655 13.8551 215.769C14.1346 215.883 14.3778 216.071 14.5587 216.313C14.7396 216.554 14.8513 216.841 14.8819 217.141C14.9125 217.441 14.8608 217.744 14.7324 218.017C14.3783 218.786 14.9763 219.764 15.6544 220.422C17.1375 221.869 19.8365 222.741 22.1313 221.608C22.4499 221.448 22.8116 221.394 23.1631 221.454C23.5147 221.515 23.8375 221.686 24.0843 221.944C24.331 222.202 24.4886 222.532 24.5339 222.885C24.5792 223.239 24.5098 223.598 24.336 223.91C24.2324 224.1 23.9151 224.675 25.2212 225.58C27.0617 226.853 30.3987 227.28 31.5345 225.947C31.76 225.677 32.0655 225.485 32.4069 225.4C32.7483 225.314 33.108 225.339 33.4344 225.471C33.7608 225.603 34.0369 225.835 34.2231 226.133C34.4093 226.432 34.496 226.782 34.4706 227.133C34.4439 227.587 34.8581 227.968 35.6999 228.272C37.988 229.101 41.4988 228.516 42.4474 227.481C42.9051 226.482 45.0963 221.662 47.2409 216.768C49.4422 211.754 54.2456 208.444 59.4766 208.344C62.8871 208.31 71.1913 207.318 75.036 198.894C78.971 190.259 77.077 181.754 75.5972 177.452C74.5098 174.354 73.9552 171.095 73.9571 167.812V166.883C73.9573 166.521 74.075 166.169 74.2925 165.88C74.5099 165.591 74.8154 165.38 75.163 165.28L78.5969 164.291C78.8077 164.23 79.0283 164.211 79.2463 164.236C79.4643 164.26 79.6753 164.328 79.8673 164.434C80.0593 164.54 80.2286 164.683 80.3653 164.854C80.5021 165.026 80.6038 165.222 80.6646 165.433C80.7253 165.644 80.744 165.865 80.7194 166.083C80.6949 166.301 80.6277 166.512 80.5216 166.704C80.4155 166.896 80.2727 167.065 80.1012 167.202C79.9297 167.338 79.7329 167.44 79.5222 167.501L77.2975 168.142C77.3342 170.951 77.8219 173.714 78.7505 176.36C80.3973 181.143 82.4917 190.596 78.0758 200.287C73.4327 210.458 63.5552 211.651 59.5234 211.691C55.6051 211.767 51.9808 214.289 50.3006 218.117C47.8822 223.636 45.4003 229.064 45.4003 229.064C45.3541 229.167 45.297 229.264 45.23 229.354C43.9239 231.128 41.0311 232 38.262 232Z" fill="url(#paint2_linear_676_84)"/>
<path d="M60.962 179.501C60.6015 179.501 60.2507 179.384 59.9622 179.168C59.6738 178.952 59.4631 178.648 59.362 178.302C56.82 169.65 48.5693 166.694 38.1239 162.956C27.4581 159.138 15.4261 154.829 5.66891 143.282C4.90063 144.421 4.00207 146.381 3.62795 148.75C3.38076 150.31 3.21374 153.192 4.87724 154.97C5.03548 155.138 5.15711 155.337 5.23443 155.554C5.31175 155.771 5.34308 156.003 5.32644 156.233C5.3098 156.463 5.24554 156.687 5.13775 156.891C5.02995 157.095 4.88096 157.275 4.7002 157.418C3.69475 158.216 3.16029 160.264 3.39412 162.389C3.54444 163.761 4.26596 167.128 7.66645 168.779C8.06467 168.972 8.36969 169.316 8.51439 169.735C8.6591 170.153 8.63165 170.612 8.43808 171.01C8.34223 171.207 8.20848 171.384 8.04447 171.529C7.88046 171.675 7.6894 171.786 7.4822 171.858C7.06374 172.003 6.60493 171.975 6.20671 171.782C2.80956 170.135 0.514722 166.761 0.0737929 162.756C-0.210138 160.174 0.337682 157.699 1.50347 156.015C0.260853 153.991 -0.156693 151.288 0.327661 148.229C0.95231 144.28 2.95319 140.459 4.98748 139.333C5.33426 139.141 5.73805 139.079 6.12664 139.157C6.51524 139.235 6.86331 139.449 7.10861 139.761C16.465 151.656 28.5705 155.985 39.2496 159.81C50.1392 163.708 59.5457 167.075 62.5654 177.357C62.6393 177.606 62.6539 177.869 62.6081 178.125C62.5623 178.381 62.4574 178.623 62.3016 178.831C62.1459 179.039 61.9437 179.208 61.7112 179.325C61.4786 179.441 61.2221 179.502 60.962 179.501Z" fill="url(#paint3_linear_676_84)"/>
<path d="M39.4214 196.073C36.0877 196.073 33.2217 195.308 31.5649 193.912C31.0316 193.477 30.612 192.919 30.3423 192.285C23.3075 193.338 15.4576 189.823 13.7607 186.547C13.5446 186.139 13.4128 185.693 13.3732 185.234C9.10756 183.597 4.80516 179.141 3.91329 175.116C3.3521 172.58 4.14043 170.413 6.13129 169.01C6.3107 168.883 6.51325 168.794 6.72735 168.745C6.94145 168.697 7.16292 168.692 7.37912 168.73C7.59532 168.767 7.802 168.847 7.98738 168.964C8.17276 169.082 8.33319 169.234 8.45953 169.414C8.58586 169.593 8.67562 169.796 8.72368 170.01C8.77174 170.224 8.77716 170.445 8.73963 170.662C8.7021 170.878 8.62235 171.085 8.50494 171.27C8.38753 171.455 8.23476 171.616 8.05534 171.742C7.4641 172.16 6.82943 172.838 7.17349 174.394C7.90503 177.698 12.341 181.847 15.8017 182.471C16.0862 182.523 16.3526 182.647 16.5747 182.832C16.7968 183.017 16.967 183.257 17.0687 183.528C17.1704 183.798 17.2 184.091 17.1548 184.376C17.1095 184.662 16.9909 184.931 16.8105 185.157C17.0743 185.538 17.7892 186.233 19.1454 186.981C22.0114 188.564 26.9518 189.957 31.4346 188.638C31.736 188.549 32.0563 188.548 32.3586 188.633C32.6609 188.718 32.933 188.887 33.1437 189.12C33.3544 189.353 33.4951 189.641 33.5497 189.95C33.6042 190.26 33.5704 190.578 33.4522 190.869C33.4121 190.966 33.372 191.069 33.7161 191.357C35.8138 193.124 43.834 193.772 50.6484 189.516C51.0233 189.312 51.4623 189.258 51.8753 189.367C52.2884 189.475 52.6443 189.738 52.8701 190.1C53.096 190.463 53.1747 190.898 53.0902 191.317C53.0056 191.735 52.7643 192.106 52.4155 192.352C48.5044 194.754 44.011 196.041 39.4214 196.073ZM22.4958 166.738C15.334 166.738 2.95126 157.642 2.82099 157.545C2.63285 157.42 2.47217 157.258 2.34869 157.068C2.2252 156.879 2.14148 156.666 2.1026 156.443C2.06372 156.22 2.07049 155.992 2.1225 155.772C2.17451 155.552 2.27068 155.345 2.40517 155.163C2.53967 154.981 2.70969 154.828 2.90492 154.714C3.10016 154.6 3.31654 154.527 3.54096 154.499C3.76537 154.471 3.99314 154.489 4.21045 154.551C4.42776 154.614 4.63009 154.72 4.80516 154.863C8.7301 157.766 18.7579 163.959 23.0202 163.368C23.2378 163.338 23.459 163.352 23.6713 163.408C23.8835 163.464 24.0827 163.562 24.2573 163.695C24.4319 163.828 24.5787 163.994 24.6891 164.184C24.7995 164.374 24.8714 164.583 24.9008 164.801C24.9302 165.018 24.9165 165.24 24.8604 165.452C24.8042 165.664 24.7069 165.863 24.5738 166.038C24.4407 166.212 24.2746 166.359 24.0848 166.47C23.895 166.58 23.6854 166.652 23.4678 166.681C23.1453 166.721 22.8207 166.74 22.4958 166.738Z" fill="url(#paint4_linear_676_84)"/>
<path d="M3.81536 157.877C3.5131 157.877 3.21657 157.795 2.95689 157.64C2.16522 157.166 1.83118 156.094 2.30552 155.302C2.78319 154.507 3.73185 154.206 4.52018 154.681L4.67384 154.774C4.98739 154.962 5.23073 155.247 5.36653 155.586C5.50233 155.926 5.52311 156.3 5.42567 156.652C5.32823 157.005 5.11796 157.315 4.82709 157.536C4.53622 157.758 4.18081 157.877 3.81536 157.877ZM22.4312 175.952C14.7617 175.952 7.2693 172.331 6.3507 171.87C6.13835 171.76 5.94082 171.623 5.7628 171.463C5.46993 171.169 5.29685 170.777 5.27724 170.362C5.25763 169.948 5.39291 169.541 5.65673 169.221C5.92055 168.901 6.29404 168.691 6.70449 168.631C7.11494 168.571 7.53299 168.666 7.87725 168.897C9.0898 169.495 17.404 173.43 24.8296 172.461C25.0509 172.424 25.2774 172.433 25.4955 172.485C25.7136 172.538 25.9189 172.634 26.0991 172.767C26.2793 172.901 26.4308 173.069 26.5444 173.263C26.658 173.456 26.7315 173.671 26.7605 173.893C26.7894 174.116 26.7733 174.342 26.713 174.558C26.6526 174.774 26.5494 174.976 26.4094 175.151C26.2694 175.326 26.0955 175.472 25.8981 175.578C25.7007 175.685 25.4839 175.751 25.2605 175.772C24.3225 175.895 23.3773 175.955 22.4312 175.952Z" fill="url(#paint5_linear_676_84)"/>
<path d="M6.94158 171.952C6.67441 171.951 6.41125 171.887 6.17312 171.766C5.935 171.645 5.7285 171.47 5.57012 171.255C5.41174 171.039 5.30587 170.79 5.26097 170.527C5.21606 170.263 5.23336 169.993 5.31148 169.738C5.37528 169.53 5.47968 169.338 5.6186 169.172C5.75752 169.005 5.92818 168.868 6.12064 168.768C6.31309 168.668 6.52349 168.608 6.73956 168.59C6.95564 168.573 7.17306 168.598 7.37917 168.665L7.4727 168.695C7.85083 168.82 8.17216 169.075 8.37878 169.415C8.58541 169.755 8.66374 170.158 8.59968 170.551C8.53562 170.944 8.33337 171.301 8.02937 171.558C7.72537 171.815 7.3396 171.955 6.94158 171.952ZM15.7267 185.845C15.2838 185.85 14.857 185.679 14.5404 185.369C14.2237 185.059 14.0431 184.636 14.0382 184.193C14.0333 183.75 14.2046 183.323 14.5144 183.007C14.8242 182.69 15.247 182.509 15.69 182.505C15.7769 182.505 24.3917 182.284 29.9534 179.188C30.3405 178.972 30.7973 178.92 31.2233 179.041C31.6493 179.163 32.0095 179.448 32.2248 179.836C32.4401 180.223 32.4928 180.68 32.3712 181.106C32.2497 181.532 31.9639 181.892 31.5768 182.107C25.2835 185.611 16.1476 185.838 15.7602 185.845H15.7267ZM31.9075 191.911C31.4819 191.914 31.0715 191.754 30.7599 191.464C30.4484 191.174 30.2592 190.776 30.2311 190.351C30.203 189.927 30.338 189.507 30.6085 189.179C30.8791 188.85 31.2649 188.638 31.687 188.584C31.687 188.584 34.3794 188.103 38.8187 184.379C39.1594 184.096 39.5978 183.959 40.0388 183.998C40.4797 184.037 40.8876 184.248 41.1737 184.586C41.4572 184.926 41.5945 185.365 41.5557 185.806C41.5169 186.247 41.3051 186.655 40.9666 186.941C35.7656 191.303 32.4887 191.848 32.1313 191.894C32.0571 191.905 31.9824 191.91 31.9075 191.911ZM69.7505 164.126C68.8286 164.126 67.9267 163.378 67.9267 162.456C67.9267 161.534 68.5179 160.785 69.4432 160.785H69.7538C70.1968 160.786 70.6214 160.962 70.9343 161.276C71.2473 161.589 71.4228 162.014 71.4224 162.457C71.4219 162.9 71.2455 163.325 70.932 163.638C70.6185 163.951 70.1935 164.126 69.7505 164.126ZM85.9112 177.143C85.5824 177.143 85.2609 177.046 84.987 176.865C84.713 176.683 84.4989 176.424 84.3713 176.121C84.2477 175.827 81.3349 168.869 80.6735 164.617C78.8998 153.253 87.3342 143.95 87.695 143.559C87.9948 143.233 88.4119 143.04 88.8545 143.021C89.2971 143.003 89.7289 143.161 90.0549 143.461C90.3809 143.761 90.5745 144.178 90.593 144.62C90.6114 145.063 90.4533 145.495 90.1535 145.821C90.0766 145.904 82.4539 154.352 83.9771 164.099C84.5784 167.954 87.4244 174.755 87.4544 174.822C87.5622 175.076 87.6051 175.353 87.5795 175.628C87.5538 175.903 87.4604 176.168 87.3074 176.398C87.1545 176.628 86.9469 176.816 86.7032 176.946C86.4596 177.077 86.1874 177.144 85.9112 177.143ZM80.8038 151.239C80.2359 151.239 75.1986 151.142 72.9973 147.818C70.9864 144.822 71.1601 139.237 71.1869 138.609C71.1957 138.366 71.2575 138.129 71.3679 137.913C71.4783 137.697 71.6346 137.507 71.8259 137.358C72.0171 137.209 72.2388 137.103 72.4752 137.049C72.7116 136.994 72.9571 136.992 73.1944 137.042C73.8926 137.186 80.0756 138.542 82.1666 141.699C84.398 144.969 82.5675 149.679 82.3504 150.203C82.2237 150.509 82.0092 150.771 81.7339 150.955C81.4587 151.14 81.135 151.238 80.8038 151.239ZM74.5573 140.867C74.6775 142.717 75.0316 144.859 75.7765 145.968C76.5348 147.11 78.3052 147.611 79.6146 147.798C79.9319 146.522 80.1524 144.672 79.3941 143.563C78.6426 142.433 76.4279 141.468 74.5573 140.867Z" fill="url(#paint6_linear_676_84)"/>
<path d="M91.6264 160.863C88.6502 160.863 85.9378 158.648 85.6405 158.394C85.3843 158.178 85.1989 157.89 85.1083 157.567C85.0178 157.244 85.0263 156.902 85.1328 156.584C85.2998 156.093 86.8531 151.74 90.3805 150.762C93.4469 149.907 98.4374 152.565 98.8984 152.843C99.09 152.959 99.2565 153.113 99.388 153.294C99.5194 153.476 99.6133 153.682 99.664 153.901C99.7147 154.119 99.7213 154.345 99.6833 154.566C99.6453 154.788 99.5636 154.999 99.4429 155.188C99.1389 155.652 96.3965 159.754 93.1096 160.666C92.6419 160.796 92.1409 160.863 91.6264 160.863ZM88.7938 156.541C89.7692 157.132 91.2189 157.733 92.211 157.449C93.2766 157.155 94.5292 155.999 95.5013 154.867C94.1417 154.269 92.2578 153.721 91.2724 153.985C90.2034 154.279 89.3249 155.525 88.7938 156.541ZM88.9207 146.362C88.607 146.362 88.2996 146.274 88.0338 146.107C87.7679 145.941 87.5544 145.703 87.4176 145.42C87.1704 144.909 85.0493 140.306 87.0802 136.862C88.9875 133.562 94.7831 132.186 95.4378 132.039C95.6558 131.991 95.8811 131.987 96.1005 132.028C96.3199 132.068 96.5291 132.152 96.7158 132.274C96.9024 132.396 97.0628 132.555 97.1875 132.74C97.3122 132.925 97.3988 133.133 97.442 133.352C97.5589 133.943 98.5076 139.234 96.647 142.454C94.6161 145.901 89.5955 146.319 89.031 146.356C88.9944 146.36 88.9576 146.362 88.9207 146.362ZM94.3889 135.814C92.6152 136.428 90.6243 137.414 89.9663 138.546C89.2615 139.738 89.5955 141.589 89.9963 142.848C91.3024 142.574 93.0595 141.96 93.7643 140.767C94.4691 139.551 94.5058 137.427 94.3889 135.814Z" fill="url(#paint7_linear_676_84)"/>
<path d="M193.666 142.417C192.228 143.795 191.66 145.765 189.678 146.909C188.038 147.858 187.751 150.096 188.563 152.139C189.531 154.573 190.409 157.038 191.287 159.507C192.939 164.149 196.499 167.747 198.407 172.243C200.253 176.586 202.445 180.837 203.739 185.337C205.453 191.292 206.681 197.366 209.246 203.08C212.483 210.299 216.731 216.592 224.196 220.155C228.942 222.42 232.338 226.617 237.083 228.875M189.286 157C186.545 158.817 187.312 161.897 186.608 164.397C185.785 167.316 185.58 170.403 185.148 173.426C184.591 177.328 185.671 181.065 187.297 184.448C190.889 191.91 193.701 199.676 196.724 207.338C198.674 212.28 202.001 216.048 205.253 219.946C206.649 221.621 207.571 223.936 210 224.708M238.438 170.388C239.975 168.704 239.071 166.793 238.346 165.379C236.847 162.46 236.065 159.42 235.813 156.226C235.653 154.191 235.18 152.461 233.097 151.897C231.854 151.561 230.56 152.036 229.797 153.206C228.676 154.925 226.856 156.655 228.161 158.899C230.614 163.128 233.36 167.202 237.465 170.006C238.766 170.894 239.246 172.057 239.8 173.404C243.366 182.105 244.419 191.525 247.429 200.38C248.802 204.412 250.618 208.185 253.75 211.167M227.708 173.424C223.368 166.773 219.104 160.076 214.92 153.317C212.043 148.669 207.801 144.873 204.071 140.788C202.478 139.044 201.56 136.714 199.132 135.653C197.002 134.723 194.331 134.986 193.451 136.725C192.932 137.755 194.228 141.602 195.459 142.08C198.553 143.276 200.157 146.142 201.64 148.588C206.956 157.345 213.803 164.987 219.085 173.744C219.771 174.878 220.83 175.781 221.718 176.792M191.25 145.542C196.657 157.95 205.979 167.983 212.758 179.554C213.184 180.282 213.733 179.647 214.167 179.885M226.667 157C222.839 153.796 220.729 149.006 216.553 146.086C213.073 143.654 210.728 139.858 207.051 137.652C205.444 136.689 203.703 135.27 201.667 136.934M193.093 165.333C191.536 169.77 192.387 173.94 194.45 177.993C196.123 181.285 197.804 184.581 198.542 188.25" stroke="url(#paint8_linear_676_84)" stroke-width="4" stroke-linecap="round" stroke-linejoin="round"/>
</g>
<defs>
<linearGradient id="paint0_linear_676_84" x1="130.405" y1="85" x2="82.6806" y2="1.04757e-05" gradientUnits="userSpaceOnUse">
<stop stop-color="#1947BE"/>
<stop offset="1" stop-color="#1947BE" stop-opacity="0.2"/>
</linearGradient>
<linearGradient id="paint1_linear_676_84" x1="93.5189" y1="159.96" x2="77.7924" y2="144.826" gradientUnits="userSpaceOnUse">
<stop stop-color="#1947BE"/>
<stop offset="1" stop-color="#1947BE" stop-opacity="0.2"/>
</linearGradient>
<linearGradient id="paint2_linear_676_84" x1="93.5189" y1="159.96" x2="77.7924" y2="144.826" gradientUnits="userSpaceOnUse">
<stop stop-color="#1947BE"/>
<stop offset="1" stop-color="#1947BE" stop-opacity="0.2"/>
</linearGradient>
<linearGradient id="paint3_linear_676_84" x1="93.5189" y1="159.96" x2="77.7924" y2="144.826" gradientUnits="userSpaceOnUse">
<stop stop-color="#1947BE"/>
<stop offset="1" stop-color="#1947BE" stop-opacity="0.2"/>
</linearGradient>
<linearGradient id="paint4_linear_676_84" x1="93.5189" y1="159.96" x2="77.7924" y2="144.826" gradientUnits="userSpaceOnUse">
<stop stop-color="#1947BE"/>
<stop offset="1" stop-color="#1947BE" stop-opacity="0.2"/>
</linearGradient>
<linearGradient id="paint5_linear_676_84" x1="93.5189" y1="159.96" x2="77.7924" y2="144.826" gradientUnits="userSpaceOnUse">
<stop stop-color="#1947BE"/>
<stop offset="1" stop-color="#1947BE" stop-opacity="0.2"/>
</linearGradient>
<linearGradient id="paint6_linear_676_84" x1="93.5189" y1="159.96" x2="77.7924" y2="144.826" gradientUnits="userSpaceOnUse">
<stop stop-color="#1947BE"/>
<stop offset="1" stop-color="#1947BE" stop-opacity="0.2"/>
</linearGradient>
<linearGradient id="paint7_linear_676_84" x1="93.5189" y1="159.96" x2="77.7924" y2="144.826" gradientUnits="userSpaceOnUse">
<stop stop-color="#1947BE"/>
<stop offset="1" stop-color="#1947BE" stop-opacity="0.2"/>
</linearGradient>
<linearGradient id="paint8_linear_676_84" x1="184.875" y1="135" x2="219.875" y2="229" gradientUnits="userSpaceOnUse">
<stop stop-color="#1947BE" stop-opacity="0.2"/>
<stop offset="1" stop-color="#1947BE"/>
</linearGradient>
<clipPath id="clip0_676_84">
<rect width="256" height="232" fill="white"/>
</clipPath>
</defs>
</svg>
