<svg width="24" height="19" viewBox="0 0 24 19" fill="none" xmlns="http://www.w3.org/2000/svg">
<path fill-rule="evenodd" clip-rule="evenodd" d="M0 17.3333C0 16.5969 0.537258 16 1.2 16H22.8C23.4627 16 24 16.5969 24 17.3333C24 18.0697 23.4627 18.6667 22.8 18.6667H1.2C0.537258 18.6667 0 18.0697 0 17.3333Z" fill="black"/>
<path d="M0 9.33333C0 8.59695 0.537258 8 1.2 8H22.8C23.4627 8 24 8.59695 24 9.33333C24 10.0697 23.4627 10.6667 22.8 10.6667H1.2C0.537258 10.6667 0 10.0697 0 9.33333Z" fill="black"/>
<path d="M0 1.33333C0 0.596954 0.537258 0 1.2 0H22.8C23.4627 0 24 0.596954 24 1.33333C24 2.06971 23.4627 2.66667 22.8 2.66667H1.2C0.537258 2.66667 0 2.06971 0 1.33333Z" fill="black"/>
</svg>
